<svg width="517" height="517" viewBox="0 0 517 517" fill="none" xmlns="http://www.w3.org/2000/svg">
<rect width="517" height="517" fill="white"/>
<rect x="138" y="101" width="74" height="335" fill="#827891"/>
<rect x="379" y="436" width="74" height="335" transform="rotate(-180 379 436)" fill="#827891"/>
<path d="M202 101L202 155L87 155L77 101L202 101Z" fill="#827891"/>
<path d="M315 436L315 382L440 382L450 436L315 436Z" fill="#827891"/>
<path d="M194 129L194 145L96 145L93 129L194 129Z" fill="#F5F5F5"/>
<path d="M323 408L323 392L431 392L434 408L323 408Z" fill="#F5F5F5"/>
<rect x="366" y="215" width="80" height="218" transform="rotate(90 366 215)" fill="#827891"/>
<rect x="310" y="267" width="164" height="103" transform="rotate(90 310 267)" stroke="#F5F5F5" stroke-width="10"/>
<path d="M202 382L202 436L67 436L77 382L202 382Z" fill="#827891"/>
<path d="M315 155L315 101L440 101L430 155L315 155Z" fill="#827891"/>
<rect x="194" y="408" width="16" height="279" transform="rotate(-180 194 408)" fill="#F5F5F5"/>
<rect x="323" y="129" width="16" height="279" fill="#F5F5F5"/>
<rect x="323" y="233" width="17" height="129" transform="rotate(90 323 233)" fill="#F5F5F5"/>
<rect x="168" y="408" width="8" height="279" transform="rotate(-180 168 408)" fill="#F5F5F5"/>
<rect x="349" y="129" width="8" height="279" fill="#F5F5F5"/>
<path d="M194 392L194 408L83 408L86 392L194 392Z" fill="#F5F5F5"/>
<path d="M323 145L323 129L424 129L421 145L323 145Z" fill="#F5F5F5"/>
</svg>
